<svg width="16" height="16" viewBox="0 0 16 16" fill="none" xmlns="http://www.w3.org/2000/svg">
<path d="M15 4.23077C15 6.01507 11.866 7.46154 8 7.46154C4.13401 7.46154 1 6.01507 1 4.23077C1 2.44646 4.13401 1 8 1C11.866 1 15 2.44646 15 4.23077Z" fill="#3A71A8"/>
<path fill-rule="evenodd" clip-rule="evenodd" d="M14.4175 7.46154C13.3374 8.41241 10.8704 9.07692 8 9.07692C5.12955 9.07692 2.66264 8.41241 1.58246 7.46154C1.20783 7.79133 1 8.15556 1 8.53846C1 10.0254 4.13401 11.2308 8 11.2308C11.866 11.2308 15 10.0254 15 8.53846C15 8.15556 14.7922 7.79133 14.4175 7.46154Z" fill="#3A71A8"/>
<path fill-rule="evenodd" clip-rule="evenodd" d="M14.4175 11.2308C13.3374 12.1816 10.8704 12.8462 8 12.8462C5.12955 12.8462 2.66264 12.1816 1.58246 11.2308C1.20783 11.5606 1 11.9248 1 12.3077C1 13.7946 4.13401 15 8 15C11.866 15 15 13.7946 15 12.3077C15 11.9248 14.7922 11.5606 14.4175 11.2308Z" fill="#3A71A8"/>
</svg>
