<svg width="16" height="16" viewBox="0 0 16 16" fill="none" xmlns="http://www.w3.org/2000/svg">
<path fill-rule="evenodd" clip-rule="evenodd" d="M0 7C0 5.89543 0.895431 5 2 5H14C15.1046 5 16 5.89543 16 7V14C16 15.1046 15.1046 16 14 16H2C0.895431 16 0 15.1046 0 14V7ZM6 10.7812C6 10.3153 6.37776 9.9375 6.84375 9.9375H12.1562C12.6222 9.9375 13 10.3153 13 10.7812C13 11.2472 12.6222 11.625 12.1562 11.625H6.84375C6.37776 11.625 6 11.2472 6 10.7812ZM3.95117 9.91406C3.44527 9.91406 3.03516 10.3242 3.03516 10.8301V10.8535C3.03516 11.3594 3.44527 11.7695 3.95117 11.7695C4.45707 11.7695 4.86719 11.3594 4.86719 10.8535V10.8301C4.86719 10.3242 4.45707 9.91406 3.95117 9.91406Z" fill="#3A71A8"/>
<path fill-rule="evenodd" clip-rule="evenodd" d="M8 0C10.7614 0 13 2.23858 13 5H3C3 2.23858 5.23858 0 8 0ZM8 2C7.44772 2 7 2.44772 7 3C7 3.55228 7.44772 4 8 4C8.55228 4 9 3.55228 9 3C9 2.44772 8.55228 2 8 2Z" fill="#3A71A8"/>
</svg>
