<svg width="16" height="16" viewBox="0 0 16 16" fill="none" xmlns="http://www.w3.org/2000/svg">
<g clip-path="url(#clip0_1002_33)">
<path d="M4 2C4 0.895429 4.89543 0 6 0H14C15.1046 0 16 0.895431 16 2V10C16 11.1046 15.1046 12 14 12H13.2539V4.69186C13.2539 3.58729 12.3585 2.69186 11.2539 2.69186H4V2Z" fill="#3A71A8"/>
<path fill-rule="evenodd" clip-rule="evenodd" d="M0 6C0 4.89543 0.895431 4 2 4H10C11.1046 4 12 4.89543 12 6V14C12 15.1046 11.1046 16 10 16H2C0.895431 16 0 15.1046 0 14V6ZM6.04036 7.54036C6.2942 7.28652 6.70575 7.28652 6.95959 7.54036L9.41921 9.99998L6.9596 12.4596C6.70575 12.7134 6.2942 12.7134 6.04036 12.4596C5.78652 12.2058 5.78652 11.7942 6.04036 11.5404L6.93074 10.65H3.49998C3.14099 10.65 2.84998 10.359 2.84998 9.99998C2.84998 9.64099 3.14099 9.34998 3.49998 9.34998H6.93074L6.04036 8.45959C5.78652 8.20575 5.78652 7.7942 6.04036 7.54036Z" fill="#3A71A8"/>
</g>
<defs>
<clipPath id="clip0_1002_33">
<rect width="16" height="16" fill="white"/>
</clipPath>
</defs>
</svg>
