<svg width="16" height="16" viewBox="0 0 16 16" fill="none" xmlns="http://www.w3.org/2000/svg">
<path fill-rule="evenodd" clip-rule="evenodd" d="M2 0C0.895431 0 0 0.895431 0 2V10.793C0 11.8975 0.895431 12.793 2 12.793H14C15.1046 12.793 16 11.8975 16 10.793V2C16 0.895431 15.1046 0 14 0H2ZM6.95959 4.54036C6.70575 4.28652 6.2942 4.28652 6.04036 4.54036L3.04036 7.54036C2.78652 7.7942 2.78652 8.20575 3.04036 8.45959C3.2942 8.71344 3.70575 8.71344 3.95959 8.45959L6.49998 5.91921L9.04036 8.45959C9.2942 8.71344 9.70575 8.71344 9.95959 8.45959L12.9596 5.45959C13.2134 5.20575 13.2134 4.7942 12.9596 4.54036C12.7058 4.28652 12.2942 4.28652 12.0404 4.54036L9.49998 7.08074L6.95959 4.54036Z" fill="#3A71A8"/>
<rect x="2" y="14" width="12" height="2" rx="1" fill="#3A71A8"/>
</svg>
