<svg width="16" height="16" viewBox="0 0 16 16" fill="none" xmlns="http://www.w3.org/2000/svg">
<path fill-rule="evenodd" clip-rule="evenodd" d="M0 6.375C0 5.90286 0.222291 5.45828 0.6 5.175L7.1 0.3C7.63333 -0.1 8.36667 -0.1 8.9 0.3L15.4 5.175C15.7777 5.45828 16 5.90286 16 6.375V11V13V14.5C16 15.3284 15.3284 16 14.5 16H12.5C11.6716 16 11 15.3284 11 14.5V14.5V13.5C11 12.6716 10.3284 12 9.5 12H6.5C5.67157 12 5 12.6716 5 13.5V14.5V14.5C5 15.3284 4.32843 16 3.5 16H1.5C0.671573 16 0 15.3284 0 14.5V13V11V6.375ZM5.75 7C5.33579 7 5 7.33579 5 7.75C5 8.16421 5.33579 8.5 5.75 8.5H10.25C10.6642 8.5 11 8.16421 11 7.75C11 7.33579 10.6642 7 10.25 7H5.75Z" fill="#3A71A8"/>
</svg>
