<svg width="16" height="16" viewBox="0 0 16 16" fill="none" xmlns="http://www.w3.org/2000/svg">
<path fill-rule="evenodd" clip-rule="evenodd" d="M4 2C4 2.55228 4.44772 3 5 3L11 3C11.5523 3 12 2.55228 12 2V1H14C15.1046 1 16 1.89543 16 3V14C16 15.1046 15.1046 16 14 16H2C0.895431 16 0 15.1046 0 14V3C0 1.89543 0.895431 1 2 1H4V2ZM4.69336 7C4.31043 7 4 7.31043 4 7.69336C4 8.07629 4.31043 8.38672 4.69336 8.38672H11.3066C11.6896 8.38672 12 8.07629 12 7.69336C12 7.31043 11.6896 7 11.3066 7H4.69336ZM4 11.373C4 11.0268 4.2807 10.7461 4.62695 10.7461H9.12266C9.46891 10.7461 9.74961 11.0268 9.74961 11.373C9.74961 11.7193 9.46891 12 9.12266 12H4.62695C4.2807 12 4 11.7193 4 11.373Z" fill="#3A71A8"/>
<rect x="5" y="2" width="2" height="6" rx="1" transform="rotate(-90 5 2)" fill="#3A71A8"/>
</svg>
