<svg width="16" height="16" viewBox="0 0 16 16" fill="none" xmlns="http://www.w3.org/2000/svg">
<path fill-rule="evenodd" clip-rule="evenodd" d="M13.1793 13.2714C12.9195 13.1809 12.6412 13.132 12.3505 13.132C11.1319 13.132 10.1263 14.015 9.8692 15.2076C9.79056 15.5732 9.50072 15.8545 9.13225 15.9104C8.74521 15.9689 8.34757 16 7.94375 16C7.54434 16 7.152 15.9698 6.7685 15.9122C6.40886 15.858 6.12521 15.5883 6.0395 15.2333C5.73995 13.9875 4.81654 13.1312 3.58651 13.1312C3.28784 13.1312 3.00154 13.1835 2.73556 13.2785C2.37416 13.408 1.97122 13.306 1.73086 13.006C1.25812 12.4159 0.866664 11.7575 0.575062 11.0468C0.427494 10.6874 0.535298 10.281 0.826016 10.0254C1.04564 9.83241 1.23039 9.60275 1.37211 9.34657C1.97122 8.26754 1.69022 6.96667 0.73235 6.13787C0.452236 5.89651 0.36829 5.49809 0.499952 5.15113C0.795625 4.37415 1.21001 3.64817 1.72821 2.99928C1.96945 2.69758 2.37239 2.59376 2.73556 2.72331C3.00154 2.81826 3.28784 2.87061 3.58651 2.86972C5.47927 2.86263 5.98206 1.62653 6.10136 0.817259C6.15791 0.431257 6.46718 0.130442 6.85245 0.076313C7.20944 0.0266208 7.5735 0 7.94375 0C8.34139 0 8.73107 0.0301703 9.11192 0.0869614C9.48659 0.143752 9.77377 0.437469 9.84446 0.811935C10.0663 1.98769 11.1399 2.86972 12.3505 2.86972C12.6326 2.8701 12.9127 2.82301 13.1793 2.73041C13.5345 2.60707 13.9287 2.71 14.1637 3.0046C14.6463 3.60874 15.0389 4.28009 15.3292 4.99761C15.4715 5.34812 15.369 5.74389 15.0889 5.9959C14.8793 6.18468 14.7025 6.4072 14.5658 6.65432C13.9843 7.70229 14.2512 9.17886 15.1074 9.87544C15.4017 10.115 15.5183 10.5099 15.3831 10.8648C15.0895 11.6336 14.679 12.352 14.1663 12.9945C13.9304 13.29 13.5363 13.3947 13.1793 13.2714ZM7.99995 11C9.65681 11 11 9.65685 11 8C11 6.34315 9.65681 5 7.99995 5C6.3431 5 4.99995 6.34315 4.99995 8C4.99995 9.65685 6.3431 11 7.99995 11Z" fill="#3A71A8"/>
</svg>
