<svg width="16" height="16" viewBox="0 0 16 16" fill="none" xmlns="http://www.w3.org/2000/svg">
<path d="M0 1.5C0 0.671573 0.671573 0 1.5 0H5.69234C6.52077 0 7.19234 0.671573 7.19234 1.5V5.79208C7.19234 6.62051 6.52077 7.29208 5.69234 7.29208H1.5C0.671573 7.29208 0 6.62051 0 5.79208V1.5Z" fill="#3A71A8"/>
<path d="M8.75781 1.5C8.75781 0.671573 9.42939 0 10.2578 0H14.5C15.3284 0 16 0.671573 16 1.5V5.76953C16 6.59796 15.3284 7.26953 14.5 7.26953H10.2578C9.42939 7.26953 8.75781 6.59796 8.75781 5.76953V1.5Z" fill="#3A71A8"/>
<path d="M0 10.2988C0 9.4704 0.671573 8.79883 1.5 8.79883H5.79688C6.6253 8.79883 7.29688 9.4704 7.29688 10.2988V14.5C7.29688 15.3285 6.6253 16 5.79688 16H1.5C0.671573 16 0 15.3285 0 14.5V10.2988Z" fill="#3A71A8"/>
<path d="M8.77344 10.3008C8.77344 9.47235 9.44501 8.80078 10.2734 8.80078H14.5001C15.3285 8.80078 16.0001 9.47235 16.0001 10.3008V14.5C16.0001 15.3284 15.3285 16 14.5001 16H10.2734C9.44501 16 8.77344 15.3284 8.77344 14.5V10.3008Z" fill="#3A71A8"/>
</svg>
