<svg width="16" height="16" viewBox="0 0 16 16" fill="none" xmlns="http://www.w3.org/2000/svg">
<path d="M14 8C14.5523 8 15.0073 8.44997 14.9287 8.99662C14.7804 10.0273 14.4034 11.0162 13.8203 11.889C13.0511 13.0401 11.9579 13.9373 10.6788 14.4672C9.3997 14.997 7.99224 15.1356 6.63437 14.8655C5.2765 14.5954 4.02922 13.9287 3.05026 12.9497C2.07129 11.9708 1.4046 10.7235 1.13451 9.36563C0.86441 8.00776 1.00303 6.6003 1.53285 5.32122C2.06266 4.04213 2.95987 2.94888 4.11101 2.17971C4.98375 1.59657 5.97273 1.21956 7.00338 1.07131C7.55003 0.992672 8 1.44772 8 2V6C8 7.10457 8.89543 8 10 8H14Z" fill="#3A71A8"/>
<path d="M14.5 6.60001C15.0523 6.60001 15.5085 6.14925 15.4169 5.60462C15.342 5.1594 15.2169 4.72299 15.0433 4.30391C14.7417 3.57595 14.2998 2.91452 13.7426 2.35737C13.1855 1.80021 12.5241 1.35826 11.7961 1.05673C11.377 0.883138 10.9406 0.758048 10.4954 0.683148C9.95075 0.591525 9.5 1.04772 9.5 1.60001L9.5 5.60001C9.5 6.15229 9.94772 6.60001 10.5 6.60001H14.5Z" fill="#3A71A8"/>
</svg>
