<svg width="16" height="16" viewBox="0 0 16 16" fill="none" xmlns="http://www.w3.org/2000/svg">
<path fill-rule="evenodd" clip-rule="evenodd" d="M4.5 0C3.67157 0 3 0.671573 3 1.5V4H5V2.5C5 2.22386 5.22386 2 5.5 2H10.5C10.7761 2 11 2.22386 11 2.5V4H13V1.5C13 0.671573 12.3284 0 11.5 0H4.5Z" fill="#3A71A8"/>
<path d="M10 10C10 11.1046 9.10457 12 8 12C6.89543 12 6 11.1046 6 10C6 8.89543 6.89543 8 8 8C9.10457 8 10 8.89543 10 10Z" fill="#3A71A8"/>
<path fill-rule="evenodd" clip-rule="evenodd" d="M0 5.5C0 4.67157 0.671573 4 1.5 4H14.5C15.3284 4 16 4.67157 16 5.5V9.3092H10.9201C10.6081 7.98535 9.41911 7 8 7C6.58089 7 5.39191 7.98535 5.07992 9.3092H0V5.5ZM0 10.6484V14.5C0 15.3284 0.671573 16 1.5 16H14.5C15.3284 16 16 15.3284 16 14.5V10.6484H10.9297C10.6334 11.9936 9.43421 13 8 13C6.56579 13 5.36664 11.9936 5.07026 10.6484H0Z" fill="#3A71A8"/>
</svg>
