<svg width="16" height="17" viewBox="0 0 16 17" fill="none" xmlns="http://www.w3.org/2000/svg">
<path fill-rule="evenodd" clip-rule="evenodd" d="M6.99383 0.858584C7.28706 0.63271 7.64155 0.505206 7.99997 0.484375V4.50115C7.98745 4.50039 7.97482 4.5 7.9621 4.5C7.62403 4.5 7.34997 4.77406 7.34997 5.11212V7H5.15C4.79101 7 4.5 7.29102 4.5 7.65C4.5 8.00899 4.79101 8.3 5.15 8.3H7.34997V10.388C7.34997 10.726 7.62403 11.0001 7.9621 11.0001C7.97482 11.0001 7.98744 10.9997 7.99997 10.9989V15.9952C7.95914 15.9955 7.91826 15.9934 7.87775 15.9896C2.25742 15.4624 1.33059 8.7463 1.07631 4.88846C1.02466 4.10499 1.60714 3.43437 2.36505 3.22926C4.36247 2.68869 6.00716 1.61861 6.99383 0.858584ZM8.00003 10.9989V15.9952C8.04086 15.9955 8.08174 15.9934 8.12225 15.9896C13.7426 15.4624 14.6694 8.7463 14.9237 4.88846C14.9753 4.10499 14.3929 3.43437 13.635 3.22926C11.6375 2.68869 9.99284 1.61861 9.00617 0.858584C8.71294 0.63271 8.35845 0.505206 8.00003 0.484375V4.50116C8.32043 4.52074 8.57422 4.78679 8.57422 5.11212V7H10.85C11.209 7 11.5 7.29102 11.5 7.65C11.5 8.00899 11.209 8.3 10.85 8.3H8.57422V10.388C8.57422 10.7133 8.32043 10.9794 8.00003 10.9989Z" fill="#3A71A8"/>
<path d="M7.99997 0.484375H8.04997V0.431385L7.99707 0.434459L7.99997 0.484375ZM6.99383 0.858584L6.96332 0.818973L6.99383 0.858584ZM7.99997 4.50115L7.99693 4.55106L8.04997 4.5543V4.50115H7.99997ZM7.9621 4.5V4.55V4.5ZM7.34997 5.11212H7.39997H7.34997ZM7.34997 7V7.05H7.39997V7H7.34997ZM7.34997 8.3H7.39997V8.25H7.34997V8.3ZM7.9621 11.0001V11.0501V11.0001ZM7.99997 10.9989H8.04997V10.9458L7.99693 10.949L7.99997 10.9989ZM7.99997 15.9952L8.00034 16.0452L8.04997 16.0448V15.9952H7.99997ZM7.87775 15.9896L7.88242 15.9399H7.88242L7.87775 15.9896ZM1.07631 4.88846L1.02641 4.89175L1.07631 4.88846ZM2.36505 3.22926L2.37811 3.27752L2.36505 3.22926ZM8.00003 15.9952H7.95003V16.0448L7.99966 16.0452L8.00003 15.9952ZM8.00003 10.9989L7.99698 10.949L7.95003 10.9519V10.9989H8.00003ZM8.12225 15.9896L8.11758 15.9399H8.11758L8.12225 15.9896ZM14.9237 4.88846L14.8738 4.88518L14.9237 4.88846ZM13.635 3.22926L13.648 3.18099L13.635 3.22926ZM9.00617 0.858584L9.03668 0.818973L9.00617 0.858584ZM8.00003 0.484375L8.00293 0.434459L7.95003 0.431385V0.484375H8.00003ZM8.00003 4.50116H7.95003V4.54819L7.99698 4.55106L8.00003 4.50116ZM8.57422 7H8.52422V7.05H8.57422V7ZM8.57422 8.3V8.25H8.52422V8.3H8.57422ZM7.99707 0.434459C7.6289 0.455857 7.26473 0.586801 6.96332 0.818973L7.02434 0.898194C7.3094 0.678618 7.65421 0.554555 8.00287 0.534291L7.99707 0.434459ZM8.04997 4.50115V0.484375H7.94997V4.50115H8.04997ZM7.9621 4.55C7.9738 4.55 7.98541 4.55036 7.99693 4.55106L8.00302 4.45125C7.98948 4.45042 7.97583 4.45 7.9621 4.45V4.55ZM7.39997 5.11212C7.39997 4.80167 7.65165 4.55 7.9621 4.55V4.45C7.59642 4.45 7.29997 4.74644 7.29997 5.11212H7.39997ZM7.39997 7V5.11212H7.29997V7H7.39997ZM5.15 7.05H7.34997V6.95H5.15V7.05ZM4.55 7.65C4.55 7.31863 4.81863 7.05 5.15 7.05V6.95C4.7634 6.95 4.45 7.2634 4.45 7.65H4.55ZM5.15 8.25C4.81863 8.25 4.55 7.98137 4.55 7.65H4.45C4.45 8.0366 4.7634 8.35 5.15 8.35V8.25ZM7.34997 8.25H5.15V8.35H7.34997V8.25ZM7.39997 10.388V8.3H7.29997V10.388H7.39997ZM7.9621 10.9501C7.65164 10.9501 7.39997 10.6984 7.39997 10.388H7.29997C7.29997 10.7537 7.59642 11.0501 7.9621 11.0501V10.9501ZM7.99693 10.949C7.98541 10.9497 7.9738 10.9501 7.9621 10.9501V11.0501C7.97583 11.0501 7.98948 11.0497 8.00302 11.0489L7.99693 10.949ZM8.04997 15.9952V10.9989H7.94997V15.9952H8.04997ZM7.87308 16.0394C7.91502 16.0433 7.9576 16.0455 8.00034 16.0452L7.9996 15.9452C7.96069 15.9455 7.92151 15.9435 7.88242 15.9399L7.87308 16.0394ZM1.02641 4.89175C1.15362 6.82155 1.44922 9.47238 2.41889 11.7079C3.38931 13.9452 5.03857 15.7735 7.87308 16.0394L7.88242 15.9399C5.0966 15.6785 3.47228 13.8852 2.51063 11.6681C1.54824 9.44936 1.25328 6.81322 1.1262 4.88518L1.02641 4.89175ZM2.35199 3.18099C1.57594 3.39102 0.972898 4.07984 1.02641 4.89175L1.1262 4.88518C1.07643 4.13014 1.63834 3.47773 2.37811 3.27752L2.35199 3.18099ZM6.96332 0.818973C5.97938 1.57689 4.34065 2.64279 2.35199 3.18099L2.37811 3.27752C4.38429 2.73458 6.03493 1.66033 7.02434 0.898194L6.96332 0.818973ZM8.05003 15.9952V10.9989H7.95003V15.9952H8.05003ZM8.11758 15.9399C8.07849 15.9435 8.03931 15.9455 8.0004 15.9452L7.99966 16.0452C8.0424 16.0455 8.08498 16.0433 8.12692 16.0394L8.11758 15.9399ZM14.8738 4.88518C14.7467 6.81322 14.4518 9.44936 13.4894 11.6681C12.5277 13.8852 10.9034 15.6785 8.11758 15.9399L8.12692 16.0394C10.9614 15.7735 12.6107 13.9452 13.5811 11.7079C14.5508 9.47238 14.8464 6.82155 14.9736 4.89175L14.8738 4.88518ZM13.6219 3.27752C14.3617 3.47773 14.9236 4.13014 14.8738 4.88518L14.9736 4.89175C15.0271 4.07984 14.4241 3.39102 13.648 3.18099L13.6219 3.27752ZM8.97566 0.898194C9.96507 1.66033 11.6157 2.73458 13.6219 3.27752L13.648 3.18099C11.6594 2.64279 10.0206 1.57689 9.03668 0.818973L8.97566 0.898194ZM7.99713 0.534291C8.34579 0.554555 8.6906 0.678618 8.97566 0.898194L9.03668 0.818973C8.73527 0.586801 8.3711 0.455857 8.00293 0.434459L7.99713 0.534291ZM8.05003 4.50116V0.484375H7.95003V4.50116H8.05003ZM7.99698 4.55106C8.29116 4.56905 8.52422 4.81339 8.52422 5.11212H8.62422C8.62422 4.7602 8.34969 4.47244 8.00308 4.45125L7.99698 4.55106ZM8.52422 5.11212V7H8.62422V5.11212H8.52422ZM10.85 6.95H8.57422V7.05H10.85V6.95ZM11.55 7.65C11.55 7.2634 11.2366 6.95 10.85 6.95V7.05C11.1814 7.05 11.45 7.31863 11.45 7.65H11.55ZM10.85 8.35C11.2366 8.35 11.55 8.0366 11.55 7.65H11.45C11.45 7.98137 11.1814 8.25 10.85 8.25V8.35ZM8.57422 8.35H10.85V8.25H8.57422V8.35ZM8.52422 8.3V10.388H8.62422V8.3H8.52422ZM8.52422 10.388C8.52422 10.6867 8.29116 10.9311 7.99698 10.949L8.00308 11.0488C8.34969 11.0277 8.62422 10.7399 8.62422 10.388H8.52422Z" fill="#3A71A8"/>
</svg>
