<svg width="16" height="16" viewBox="0 0 16 16" fill="none" xmlns="http://www.w3.org/2000/svg">
<path fill-rule="evenodd" clip-rule="evenodd" d="M4.5 0C3.67157 0 3 0.671573 3 1.5V4H5V2.5C5 2.22386 5.22386 2 5.5 2H10.5C10.7761 2 11 2.22386 11 2.5V4H13V1.5C13 0.671573 12.3284 0 11.5 0H4.5Z" fill="#3A71A8"/>
<path fill-rule="evenodd" clip-rule="evenodd" d="M0 6C0 4.89543 0.895431 4 2 4H14C15.1046 4 16 4.89543 16 6V14C16 15.1046 15.1046 16 14 16H2C0.895431 16 0 15.1046 0 14V6ZM4.5 9.65C4.5 9.29102 4.79101 9 5.15 9H7.34997V7.11212C7.34997 6.77406 7.62403 6.5 7.9621 6.5C8.30016 6.5 8.57422 6.77406 8.57422 7.11212V9H10.85C11.209 9 11.5 9.29102 11.5 9.65C11.5 10.009 11.209 10.3 10.85 10.3H8.57422V12.388C8.57422 12.726 8.30016 13.0001 7.9621 13.0001C7.62403 13.0001 7.34998 12.726 7.34998 12.388V10.3H5.15C4.79101 10.3 4.5 10.009 4.5 9.65Z" fill="#3A71A8"/>
</svg>
