<svg width="16" height="16" viewBox="0 0 16 16" fill="none" xmlns="http://www.w3.org/2000/svg">
<rect x="3" y="14" width="10" height="2" rx="1" fill="#3A71A8"/>
<path fill-rule="evenodd" clip-rule="evenodd" d="M0 2C0 0.895432 0.895431 0 2 0H14C15.1046 0 16 0.89543 16 2V10.772C16 11.8766 15.1046 12.772 14 12.772H2C0.895431 12.772 0 11.8766 0 10.772V2ZM4 4.69336C4 4.31043 4.31043 4 4.69336 4H11.3066C11.6896 4 12 4.31043 12 4.69336C12 5.07629 11.6896 5.38672 11.3066 5.38672H4.69336C4.31043 5.38672 4 5.07629 4 4.69336ZM4.62695 7.74609C4.2807 7.74609 4 8.02679 4 8.37305C4 8.7193 4.2807 9 4.62695 9H9.12266C9.46891 9 9.74961 8.7193 9.74961 8.37305C9.74961 8.02679 9.46891 7.74609 9.12266 7.74609H4.62695Z" fill="#3A71A8"/>
</svg>
